<svg width="24" height="24" viewBox="0 0 24 24" fill="none" xmlns="http://www.w3.org/2000/svg">
<path d="M12.0001 15.8C14.2093 15.8 16.0001 14.0092 16.0001 11.8C16.0001 9.59091 14.2093 7.80005 12.0001 7.80005C9.79098 7.80005 8.00012 9.59091 8.00012 11.8C8.00012 14.0092 9.79098 15.8 12.0001 15.8Z" stroke="#4F46E5" stroke-opacity="0.48" stroke-width="2" stroke-miterlimit="10" stroke-linecap="square"/>
<path d="M7.0001 21.6C5.19311 20.6788 3.676 19.276 2.61644 17.5465C1.55687 15.817 0.996094 13.8282 0.996094 11.8C0.996094 9.77176 1.55687 7.783 2.61644 6.05352C3.676 4.32405 5.19311 2.92119 7.0001 2" stroke="#4F46E5" stroke-width="2" stroke-miterlimit="10" stroke-linecap="square"/>
<path d="M17.0001 2C18.8071 2.92119 20.3242 4.32405 21.3838 6.05352C22.4434 7.783 23.0041 9.77176 23.0041 11.8C23.0041 13.8282 22.4434 15.817 21.3838 17.5465C20.3242 19.276 18.8071 20.6788 17.0001 21.6" stroke="#4F46E5" stroke-width="2" stroke-miterlimit="10" stroke-linecap="square"/>
</svg>
