<svg width="16" height="14" viewBox="0 0 16 14" fill="none" xmlns="http://www.w3.org/2000/svg">
<path d="M15.9683 0.276016C15.9557 0.21697 15.9276 0.162364 15.8868 0.117872C15.846 0.0733806 15.794 0.0406272 15.7363 0.0230158C15.526 -0.0189055 15.3084 -0.00335983 15.1063 0.0680158C15.1063 0.0680158 1.08725 5.10602 0.286252 5.66402C0.114252 5.78502 0.056252 5.85402 0.027252 5.93602C-0.110748 6.33602 0.320252 6.50902 0.320252 6.50902L3.93325 7.68602C3.99426 7.69702 4.05701 7.69325 4.11625 7.67502C4.93825 7.15602 12.3863 2.45302 12.8163 2.29502C12.8843 2.27502 12.9343 2.29502 12.9163 2.34402C12.7443 2.94402 6.31025 8.66302 6.27525 8.69802C6.25818 8.71228 6.2448 8.73046 6.23627 8.751C6.22774 8.77155 6.2243 8.79385 6.22625 8.81602L5.88925 12.344C5.88925 12.344 5.74725 13.444 6.84525 12.344C7.62425 11.565 8.37225 10.919 8.74525 10.606C9.98725 11.464 11.3243 12.412 11.9013 12.906C11.9979 13.0001 12.1125 13.0737 12.2383 13.1223C12.3641 13.171 12.4985 13.1936 12.6333 13.189C12.7992 13.1685 12.955 13.098 13.0801 12.987C13.2051 12.8759 13.2934 12.7294 13.3333 12.567C13.3333 12.567 15.8943 2.29202 15.9793 0.909016C15.9873 0.774016 16.0003 0.692016 16.0003 0.592016C16.0039 0.48572 15.9931 0.37942 15.9683 0.276016Z" fill="currentColor" fill-opacity="0.88"/>
</svg>
