<svg width="14" height="16" viewBox="0 0 14 16" fill="none" xmlns="http://www.w3.org/2000/svg">
<path d="M5.75463 5.958V8.706C5.40854 8.61473 5.04638 8.60229 4.69484 8.6696C4.34331 8.73691 4.01136 8.88225 3.72346 9.09491C3.43556 9.30757 3.19906 9.58212 3.03138 9.89834C2.86371 10.2146 2.76913 10.5644 2.75463 10.922C2.73428 11.2303 2.78023 11.5395 2.88938 11.8285C2.99854 12.1176 3.16837 12.38 3.38745 12.5979C3.60652 12.8158 3.86974 12.9843 4.15939 13.092C4.44904 13.1996 4.7584 13.244 5.06663 13.222C5.37744 13.2456 5.68968 13.2015 5.9818 13.0928C6.27392 12.984 6.53897 12.8132 6.75866 12.5921C6.97836 12.371 7.14747 12.1048 7.25433 11.812C7.36119 11.5192 7.40326 11.2067 7.37763 10.896V0H10.0966C10.5596 2.876 11.9966 3.544 13.9236 3.852V6.608C12.5889 6.49893 11.3013 6.06424 10.1736 5.342V10.787C10.1716 13.25 8.71163 16 5.08663 16C4.40669 15.9969 3.7342 15.8581 3.10858 15.5918C2.48295 15.3255 1.91677 14.937 1.44319 14.4491C0.969621 13.9612 0.598186 13.3836 0.350651 12.7503C0.103116 12.1171 -0.0155422 11.4407 0.00162999 10.761C0.0230104 10.0531 0.194214 9.35787 0.503949 8.72102C0.813685 8.08418 1.25491 7.52023 1.79854 7.06637C2.34216 6.61252 2.97583 6.27907 3.65775 6.08802C4.33966 5.89697 5.05434 5.85265 5.75463 5.958Z" fill="currentColor" fill-opacity="0.88"/>
</svg>
